<?xml version="1.0" standalone="no"?>
<!DOCTYPE svg PUBLIC "-//W3C//DTD SVG 1.1//EN" "http://www.w3.org/Graphics/SVG/1.1/DTD/svg11.dtd">
<svg xmlns="http://www.w3.org/2000/svg">
<metadata>Copyright (C) 2019 by original authors @ fontello.com</metadata>
<defs>
<font id="caravanconcierge" horiz-adv-x="1000" >
<font-face font-family="caravanconcierge" font-weight="400" font-stretch="normal" units-per-em="1000" ascent="850" descent="-150" />
<missing-glyph horiz-adv-x="1000" />
<glyph glyph-name="water-heater" unicode="&#xe800;" d="M756 850h-512c-44 0-79-35-79-79v-734c0-43 35-79 79-79h188v-91c0-9 8-17 17-17s18 8 18 17v91h66v-91c0-9 8-17 18-17 9 0 17 8 17 17v91h188c44 0 79 36 79 79v734c0 44-35 79-79 79z m0-857h-512c-24 0-44 20-44 44v734c0 24 20 44 44 44h512c24 0 44-20 44-44v-734h0c0-24-20-44-44-44z m-256 272c-64 0-115-51-115-115s51-116 115-116 115 52 115 116-51 115-115 115z m0-196c-44 0-80 37-80 81s36 80 80 80 81-36 81-80-37-81-81-81z m0 131c-10 0-17-8-17-18v-32c0-10 7-18 17-18 10 0 18 8 18 18v32c0 10-8 18-18 18z m101 341c-15 32-39 49-40 50-6 4-14 4-20 0-6-4-9-12-7-19 0-1 0-1 0-2-22 59-65 86-67 87-6 4-14 3-20-1-5-4-8-11-6-18l5-25c6-26-3-52-23-69-34-29-47-77-31-119l9-23c4-9 14-14 23-10 9 3 13 13 10 22l-9 24c-11 28-3 60 20 79 24 19 37 46 38 75 15-20 28-51 29-93 0-7 4-14 11-16 7-3 15-1 19 4 1 2 17 19 24 45 14-24 24-64-5-117-4-9-1-19 8-24 2-1 5-2 8-2 6 0 12 3 15 9 34 64 24 113 9 143z m89 179h-380c-10 0-18-8-18-17v-380c0-10 8-18 18-18h380c10 0 18 8 18 18v380c0 9-8 17-18 17z m-17-380h-346v345h346v-345z" horiz-adv-x="1000" />

<glyph glyph-name="seat-belt" unicode="&#xe801;" d="M954 155c-56 24-116 43-176 57-9 111-55 210-126 270l142 142c3 4 5 7 5 12 0 5-2 9-5 12l-48 49c-7 6-18 6-24 0l-150-151c-2 5-2 10-2 14v30c41 24 69 69 69 119 0 0 0 1 0 1 0 1 0 2 0 2 0 76-62 138-138 138s-138-62-138-138c0 0 0-1 0-2 0 0 0-1 0-1 0-49 28-95 69-119v-30c0-19-12-38-31-46-97-49-165-165-175-300-64-15-124-36-180-61-5-1-11-6-11-13 0-7 2-12 7-16l69-46c5-4 11-4 16-2 34 11 66 21 98 30 3-97 21-185 53-247 4-6 9-9 16-9h86c5 0 14 3 16 9 1 5 3 12 0 17-21 39-31 96-33 167 90 17 188 17 276 0-2-71-12-128-33-167-3-5-3-12 0-17 4-6 10-9 16-9h86c7 0 12 3 14 9 32 63 51 150 53 247 32-8 66-19 100-30 2-2 3-2 5-2 4 0 7 2 9 5l69 47c5 3 7 9 7 15 0 6-5 12-11 14z m-213 66c-71 14-143 23-214 25-37 1-73 1-109-1l210 210c63-52 104-138 113-234z m-285 398c0 0 0 0 0 0-2 1-4 2-6 3-28 16-48 45-52 80 0 0 0 0 0 0 0 1 0 3 0 4 0 1 0 1 0 1 0 2-1 4-1 5 0 57 47 104 104 104s103-47 102-104c0-40-23-76-59-93-2-1-3-2-4-3-12-5-25-7-39-7-16 0-31 3-45 10z m-40-133c31 16 50 45 50 78v15c11-3 23-5 35-5 11 0 22 2 33 4v-14c0-14 5-29 12-42l-283-282c15 112 74 207 153 246z m281-602h-50c18 45 26 104 26 173 0 9-5 15-13 17-100 23-216 23-318 0-8-2-14-8-14-17 0-69 9-128 26-173h-50c-27 59-43 138-44 228 6 2 12 4 18 5 150 33 285 33 433 2 11-2 21-5 31-7-1-90-17-169-45-228z m181 226c-122 40-230 63-337 67-89 4-177-4-271-25-10-4-23-5-33-9 0 0 0 0-1 0-36-9-73-20-111-33l-36 25c48 20 102 37 157 49 1 0 1-1 1-1 2 2 4 2 6 2 0 0 0 0 1 0 1 1 2 1 4 1 3 2 7 4 8 5l314 312c2 2 3 4 4 6l150 150 24-24-400-400c-5-6-7-13-4-19 4-7 11-11 18-11 0 0 0 0 0 0 1 0 1 0 1 0 75 7 152 8 229 1 44-4 89-11 133-20 7-2 14-3 21-5 0 0 1 0 1 0 53-12 105-28 156-46l-35-25z" horiz-adv-x="1000" />

<glyph glyph-name="stove" unicode="&#xe802;" d="M852 850h-704c-39 0-70-31-70-69v-862c0-38 31-69 70-69h704c39 0 70 31 70 69v862c0 38-31 69-70 69z m-148-767c-9 0-15-7-15-15v-32h-174v174h32c8 0 15 7 15 15s-7 14-15 14h-32v175h174v-33c0-8 6-14 15-14s14 6 14 14v33h174v-175h-32c-8 0-15-6-15-14s7-15 15-15h32v-174h-174v32c0 8-6 15-14 15z m-393-47v79c0 8-6 15-14 15s-15-7-15-15v-79h-174v174h79c8 0 15 7 15 15s-7 14-15 14h-79v175h174v-80c0-8 6-14 15-14s14 6 14 14v80h174v-175h-79c-8 0-15-6-15-14s7-15 15-15h79v-174h-174z m581 745v-134h-79c-8 0-15-7-15-15s7-15 15-15h79v-174h-174v79c0 8-6 15-14 15s-15-7-15-15v-79h-174v174h79c8 0 15 7 15 15s-7 15-15 15h-79v174h174v-80c0-8 6-14 15-14s14 6 14 14v80h134c22 0 40-18 40-40z m-744 40h134v-33c0-8 6-14 15-14s14 6 14 14v33h174v-174h-32c-8 0-15-7-15-15s7-15 15-15h32v-174h-174v32c0 8-6 15-14 15s-15-7-15-15v-32h-174v174h32c8 0 15 7 15 15s-7 15-15 15h-32v134c0 22 18 40 40 40z m704-942h-704c-22 0-40 18-40 40v88h784v-88c0-22-18-40-40-40z m-555 629c68 0 124 55 124 124s-56 124-124 124-125-56-125-124 56-124 125-124z m0 219c52 0 94-43 94-95s-42-95-94-95-95 43-95 95 42 95 95 95z m531-502c0 68-56 124-124 124s-125-56-125-124 56-124 125-124 124 55 124 124z m-124-95c-53 0-95 42-95 95s42 95 95 95 94-43 94-95-42-95-94-95z m-407 172c-43 0-78-35-78-77s35-77 78-77 77 34 77 77-35 77-77 77z m0-125c-27 0-48 21-48 48s21 48 48 48 47-22 47-48-21-48-47-48z m407 532c-43 0-78-35-78-77s35-77 78-77 77 34 77 77-35 77-77 77z m0-125c-27 0-48 21-48 48s21 48 48 48 48-22 48-48-22-48-48-48z m-267-595c-25 0-46-21-46-46s21-46 46-46 46 21 46 46-20 46-46 46z m0-63c-9 0-16 8-16 17s7 17 16 17 17-8 17-17-7-17-17-17z m-125 63c-25 0-46-21-46-46s21-46 46-46 46 21 46 46-20 46-46 46z m0-63c-9 0-16 8-16 17s7 17 16 17 17-8 17-17-8-17-17-17z m376 63c-25 0-46-21-46-46s21-46 46-46 46 21 46 46-21 46-46 46z m0-63c-9 0-17 8-17 17s8 17 17 17 17-8 17-17-8-17-17-17z m-125 63c-26 0-46-21-46-46s20-46 46-46 46 21 46 46-21 46-46 46z m0-63c-9 0-17 8-17 17s8 17 17 17 16-8 16-17-7-17-16-17z" horiz-adv-x="1000" />

<glyph glyph-name="tv" unicode="&#xe803;" d="M946 766v1h-5-882-5v-1c-29-2-51-25-54-53v-5-581c0-11 3-21 8-29 11-20 28-30 51-30h322v-82h-61c-16 0-27-11-27-26 0-16 11-27 27-27h360c15 0 27 11 27 27 0 15-12 26-27 26h-61v82h322c23 0 40 10 51 30 5 9 8 18 8 29v581 5c-3 28-26 51-54 53z m0-58v-581c0-3-2-5-5-5h-882c-4 0-5 2-5 5v581 5h892v-5z" horiz-adv-x="1000" />

<glyph glyph-name="speaker" unicode="&#xe804;" d="M783 504c-82 0-150-67-150-150 0-83 68-150 150-150 83 0 150 67 150 150 0 82-67 150-150 150z m35-39c13-4 25-10 35-18l-20-20-26 27 11 11z m42-111l-27-27-26 27 26 26 27-26z m-50 50l-27-27-26 27 26 26 27-26z m-50-50l-27-27-26 27 26 26 27-26z m-12 111l12-11-27-27-19 20c10 8 22 14 34 18z m-58-42l20-19-27-27-11 12c4 12 10 24 18 34z m0-139c-8 10-14 22-18 35l11 11 27-26-20-20z m58-42c-12 4-24 10-34 18l19 20 27-26-12-12z m9 62l26 26 27-26-27-27-26 27z m61-62l-11 12 26 26 20-20c-10-8-22-14-35-18z m59 42l-20 20 26 26 12-11c-4-13-10-25-18-35z m6 93l-26 27 20 19c8-10 14-22 18-34l-12-12z m-98 193h-570c-119 0-215-96-215-214v-4c0-119 96-215 215-215h570c119 0 215 96 215 215v4c0 118-96 214-215 214z m182-218c0-100-82-182-182-182h-570c-100 0-181 82-182 182v4c1 100 82 181 182 181h570c100 0 182-81 182-181v-4z m-484 142v-98l-45 45-23-24 61-61-61-62 23-24 45 45v-98l90 90-49 49 49 49-90 89z m43-187l-9-9v17l9-8z m-9 89v17l9-8-9-9z m-300 108c-83 0-150-67-150-150 0-83 67-150 150-150s150 67 150 150c0 82-67 150-150 150z m35-39c12-4 24-10 34-18l-19-20-27 27 12 11z m41-111l-26-27-27 27 27 26 26-26z m-50 50l-26-27-27 27 27 26 26-26z m-50-50l-26-27-27 27 27 26 26-26z m-11 111l11-11-26-27-20 20c10 8 22 14 35 18z m-59-42l20-19-26-27-12 12c4 12 10 24 18 34z m0-139c-8 10-14 22-18 35l12 11 26-26-20-20z m59-42c-13 4-25 10-35 18l20 20 26-26-11-12z m8 62l27 26 26-26-26-27-27 27z m62-62l-12 12 27 26 19-20c-10-8-22-14-34-18z m58 42l-20 20 27 26 11-11c-4-13-10-25-18-35z m7 93l-27 27 20 19c8-10 14-22 18-34l-11-12z m278 370l15 29c-69 36-151 36-220 0l15-29c60 31 130 31 190 0z m-144-85l16-30c21 12 46 12 66 0l16 30c-30 16-67 16-98 0z m129 57c-50 27-110 27-160 0l16-29c40 21 88 21 128 0l16 29z m-175-765l-15-29c69-37 152-37 220 0l-15 29c-60-31-130-31-190 0z m144 85l-16 29c-20-11-45-11-66 0l-16-29c31-17 68-17 98 0z m-129-58c50-27 110-27 160 0l-16 30c-40-22-88-22-128 0l-16-30z" horiz-adv-x="1000" />

<glyph glyph-name="volume" unicode="&#xe805;" d="M499 698c-7 0-13-2-18-5l-295-147h-142c-24 0-44-19-44-44v-305c0-22 20-42 44-42h142l295-148c28-15 62 7 62 39v608c0 24-20 44-44 44z m-42-582l-241 121c-7 3-14 5-20 5h-109v216h109c6 0 13 2 20 5l241 121v-468z m409 235l122 120c16 18 16 44 0 62l-153 152c-8 8-20 13-31 13-25 0-42-20-42-44v-199l-79 78c-40 41-102-21-61-62l122-120-122-122c-41-41 21-103 61-62l79 78v-198c0-40 45-59 73-31l153 151c16 18 16 46 0 62l-122 122z m-18 199l47-48-47-47v95z m0-399v94l47-47-47-47z" horiz-adv-x="1000" />

<glyph glyph-name="playing-cards" unicode="&#xe806;" d="M793 362c-15 0-25 17-17 30l59 101c12 22 46 3 33-19-11-19-22-39-33-58-8-14-22-54-42-54z m0 0m207 219c-7 27-31 38-53 50-30 17-59 34-89 51-74 43-148 86-222 128-18 10-36 21-54 31-28 16-64 7-80-21l-21-36h-422c-33 0-59-27-59-59v-705c0-33 26-59 59-59h227 140c25 0 36 1 58-11 42-25 120-89 157-24 106 182 211 364 316 546 17 29 53 72 43 109-4 15 4-16 0 0z m-471-561c0-11-9-20-20-20h-450c-11 0-20 9-20 20v705c0 11 9 20 20 20h450c11 0 20-9 20-20z m432 536l-353-610c-6-9-18-13-27-7l-48 27c21 9 35 30 35 54v705c0 27-18 50-43 56l11 19c5 9 17 13 27 7 68-39 136-78 205-118 45-26 90-51 135-77 15-9 72-31 58-56z m0 0m-626-258c67 0 100 83 56 131-17 18-33 35-49 53-12 12-36 51-55 51-20 0-44-35-56-47-17-18-34-35-52-53-57-58 8-164 85-126v-36h-39c-25 0-25-40 0-40h118c25 0 25 40 0 40h-39v35c9-5 20-8 31-8 0 0-11 0 0 0z m-79 51c-23-23-60-3-60 28 0 18 11 29 23 40 22 23 44 45 67 68l76-82c33-37-17-87-54-52-21 21-30 20-52-2z m0 0m214 122c-10 0-19 9-19 19v118c0 25 39 25 39 0v-118c0-10-9-19-20-19z m0 0m0 196c-25 0-25 39 0 39h0c26 0 26-39 0-39z m0 0m-372-628c-26 0-26 39 0 39h0c25 0 25-39 0-39z m0 0" horiz-adv-x="1000" />

<glyph glyph-name="refrigerator-with-freezer" unicode="&#xe807;" d="M750 850h-500c-43 0-77-35-77-77v-793c0-42 34-77 77-77h1c-1-3-1-6-1-10 0-24 19-43 43-43h24c23 0 43 19 43 43 0 4-1 7-2 10h289c-1-3-1-6-1-10 0-24 19-43 43-43h24c24 0 43 19 43 43 0 4-1 7-1 11 40 2 73 35 73 76v793c0 42-35 77-78 77z m-500-66h500c7 0 11-5 11-11v-276h-522v276c0 6 4 11 11 11z m500-815h-500c-7 0-11 5-11 11v451h523v-451c-1-6-6-11-12-11z" horiz-adv-x="1000" />

<glyph glyph-name="kitchenware" unicode="&#xe808;" d="M745-10c-36 55-562 748-640 843-11 13-24 9-29 4-9-9-14-21 4-94 11-44 94-288 122-358 57-143 94-138 115-141 11-1 21 1 29 7 24 16 32 21 41 27 3 2 7 4 11 6 25-42 57-106 87-169 42-85 84-173 118-218 22-29 45-38 61-40 30-3 62 13 80 42 18 29 19 64 1 91z m-33-71c-11-17-27-26-43-24-12 2-25 10-35 25-32 42-74 128-114 211-37 76-72 148-101 190-3 5-8 7-13 8-4 1-9 0-13-3-12-8-43-26-68-43-1-1-2-1-3-1-13-7-14 3-36 33-35 48-135 330-164 423-11 36 1 16 10 5 95-122 547-720 582-774 11-17 6-37-2-50z m283 731c-8 7-20 7-27 0-49-47-94-93-130-130-9-9-18-18-26-26l-35 36 151 147c7 7 8 19 0 27-7 7-19 8-27 0l-151-147-34 34 152 148c8 7 8 19 1 26-8 8-20 8-27 1l-153-148-33 33 165 160c8 7 8 19 1 26-8 8-20 8-27 1l-190-184c-48-47-45-116 8-180l-108-107c-7-7-7-19 0-26 3-3 7-5 10-6 6-1 12 1 17 5l108 107c21-18 46-30 73-34 3-1 6-1 10-2 34-3 66 7 87 27 13 13 31 32 55 56 36 36 81 82 129 129 8 7 8 19 1 27z m-212-185c-12-12-34-18-57-16-26 3-52 15-72 36-39 40-65 97-25 139l157-156c-1-1-2-2-3-3z m-363-270c-8 7-20 6-27-2-77-86-215-238-262-279-23-21-60-13-80 8-20 22-17 49 9 75 66 67 163 143 236 198 8 6 10 18 3 27s-18 10-26 3c-74-55-172-133-240-201-49-50-36-100-9-128 15-16 36-27 59-31 25-4 52 1 73 20 54 48 210 220 265 283 7 8 6 20-1 27z" horiz-adv-x="1000" />

<glyph glyph-name="microwave-oven" unicode="&#xe809;" d="M948 659h-896c-29 0-52-24-52-52v-513c0-29 23-53 52-53h896c29 0 52 24 52 53v513c0 28-23 52-52 52z m23-565c0-13-11-23-23-23h-896c-12 0-23 10-23 23v513c0 12 11 22 23 22h896c12 0 23-10 23-22v-513z m-303 437h-507c-20 0-36-16-36-36v-290c0-20 16-36 36-36h507c20 0 36 16 36 36v290c0 20-16 36-36 36z m7-326c0-4-3-7-7-7h-507c-4 0-7 3-7 7v290c0 4 3 7 7 7h507c4 0 7-3 7-7v-290z m166 322h-36c-13 0-23-10-23-22v-293c0-12 10-22 23-22h36c12 0 22 10 22 22v293c0 12-10 22-22 22z m-7-308h-22v279h22v-279z m-525 215c-6 5-15 5-20-1-6-6-5-15 1-21 27-25 7-57 4-62-24-42-4-75 11-87 2-3 6-4 9-4 4 0 8 2 11 6 5 6 5 15-2 20-1 1-22 19-4 50 13 19 28 65-10 99z m104 0c-6 5-15 5-21-1-5-6-5-15 1-21 28-25 8-57 5-61-26-39-5-75 10-88 3-2 6-4 10-4 4 0 8 2 10 5 6 6 5 15-1 21-1 1-23 22-5 50 14 19 29 65-9 99z m104 0c-6 5-16 5-21-1-6-6-5-15 1-21 28-25 7-57 5-61-26-40-5-75 10-88 2-2 6-4 9-4 4 0 8 2 11 5 6 6 5 16-1 21-1 1-24 21-5 50 13 19 28 65-9 99z" horiz-adv-x="1000" />

<glyph glyph-name="bluetooh-symbol" unicode="&#xe80a;" d="M497 350l221 214c6 6 9 14 9 22 0 8-3 15-9 21l-251 235c-5 6-13 8-20 8-1 0-1 0-1 0-16 0-29-13-29-29v-394l-166 161c-12 11-30 11-41-1-12-12-11-30 0-41l202-196-204-198c-12-11-12-30-1-41 6-6 14-9 21-9 8 0 15 3 21 8l168 163v-394c0-16 13-29 29-29 0 0 1 0 1 0 0 0 0 0 0 0 7 0 15 3 20 8l251 235c6 6 9 13 9 22 0 8-3 15-9 21l-221 214z m-21 61v343l179-169-179-174z m0-465v343l179-174-179-169z m203 404l113 110c12 11 12 30 1 41-11 12-30 12-42 1l-135-131c-6-5-9-13-9-21s3-16 9-21l135-131c6-6 13-8 21-8 7 0 15 3 21 9 11 11 11 30-1 41l-113 110z" horiz-adv-x="1000" />

<glyph glyph-name="coffe-pot-2" unicode="&#xe80b;" d="M782 608c-24 51-70 32-103 3 3 29 5 59 7 88 0 6-8 7-11 3-56 61-128 92-203 98 1 0 2 1 2 2 0 40-46 64-76 36-9-7-21-30-6-38 8-3 21 4 18 13-1 3-4 2-4-1-2-5-5-7-7-4-2 1-2 3-2 5-1 7 1 12 6 17 7 6 17 10 26 10 21 0 35-18 35-38 0-1 0-1 1-2-91 4-183-31-251-103-3 1-7-1-6-5 21-64 41-128 59-193 15-50 21-116 43-163 32-68 104-66 171-64 46 2 96-1 129 25 0 0-1-1 0-1 44-110 75-221 105-336 2-6 11-4 9 3-19 116-59 229-108 336 0 1-1 1-3 1 9 8 17 18 23 32 22 51 24 122 32 176 1 8 2 15 3 23 51 61 45-37 46-69 2-41 2-82 6-123 0-4 4-5 6-3 3-19 23-33 42-26 18 8 25 31 15 48 0 0 0 0 0 0 4 54 4 109 6 163 0 29 3 61-10 87z m-564 82c0 0 0 0 0 0 130 130 309 127 444 11-149-62-290-72-442-16-1 2-2 4-2 5z m428-241c-10-62-8-86-61-126-48-37-75-39-133-38-64 2-104 22-137 82-17 32-21 85-31 121-18 64-38 127-62 190 70-31 146-46 222-45 7-84 12-169 25-252 0-3 4-2 4 1-2 84-14 168-23 252 76 2 151 22 217 60 1 0 1 1 1 2 1 0 1 0 1-1 1-1 3-1 5 0-6-83-15-164-28-246z m121-130c-14-6-31 6-33 21 0 2-2 2-3 2 0 70-5 141-8 211 0 2-2 4-4 4-20 1-35-4-47-16 2 20 5 40 7 60 27 33 59 30 97-9 4-12 5-25 5-37 1-18 0-36-1-54-2-48-4-96-3-144 0 0 0-1 0-1 0-1 0-2 1-3 6-12 2-28-11-34z m-437 312c-1 2-5 2-5 0 4-69 13-142 35-207 1-3 5-2 5 1-13 69-27 136-35 206z m238 17c-1 3-5 3-5 0 4-72 1-143 3-214 0-4 5-4 6 0 9 70 3 144-4 214z m-238-360c-32-119-64-239-87-360-1-6 8-9 10-2 33 118 59 240 83 360 1 4-5 6-6 2z m388-334c-111-134-325-96-466-35-4 2-8-4-4-7 136-68 375-109 478 36 3 5-4 11-8 6z m-99 276c-98-45-185-38-289-30 2 0 2 4 0 4-2 0-4 1-6 1-2 0-4-3-1-4 96-42 210-25 302 20 7 3 1 12-6 9z" horiz-adv-x="1000" />

<glyph glyph-name="cooking" unicode="&#xe80c;" d="M862 808c-9 10-9 25 0 35 10 9 25 9 35 0l3-3c9-10 9-25 0-35-5-5-11-7-17-7s-13 2-18 7l-3 3z m-3-271c39 0 70-31 70-70s-31-71-70-71-71 32-71 71 32 70 71 70z m0-48c-12 0-22-10-22-22 0-12 10-22 22-22 12 0 22 10 22 22 0 12-10 22-22 22z m110-305v-29c0-38-31-69-69-69h-20v-131c0-58-47-105-105-105h-550c-58 0-105 47-105 105v131h-20c-38 0-69 31-69 69v29c0 38 31 69 69 69h20v72c0 14 11 25 25 25h711c13 0 24-11 24-25v-72h20c38 0 69-31 69-69z m-849 21h-20c-11 0-20-10-20-21v-29c0-11 9-20 20-20h20v70z m711 96h-662v-346c0-31 25-56 56-56h550c31 0 56 25 56 56v346z m89-117c0 11-9 21-20 21h-20v-70h20c11 0 20 9 20 20v29z m-125 471c6 0 12 2 17 7l3 3c10 10 10 25 0 35-9 9-25 9-34 0l-4-4c-9-9-9-25 0-34 5-5 11-7 18-7z m-202-257c0-14 11-25 24-25s24 11 24 25c0 19 16 35 35 35 20 0 35-16 35-35 0-14 11-25 25-25s24 11 24 25c0 46-38 83-84 83-46 0-83-37-83-83z m-455 36c-3 13 5 26 18 30l265 62-5 20c-9 37 14 74 51 83l29 7c37 8 74-15 83-52l4-19 265 62c13 3 26-5 29-18 3-13-5-26-18-29l-692-164c-2 0-4-1-5-1-11 0-21 8-24 19z m325 123l5-20 68 16-5 20c-2 9-10 16-20 16-1 0-3 0-4-1l-29-7c-11-2-17-13-15-24z" horiz-adv-x="1000" />

<glyph glyph-name="shower-1" unicode="&#xe80d;" d="M881 409c10 0 17 8 17 17v407c0 9-7 17-17 17-73 0-186-58-186-136v-16h-356c-47-1-85-38-85-85v-81c-17-15-28-35-32-57-103-16-181-101-187-204-24-8-38-32-34-56 4-25 25-43 50-43h508c25 0 47 18 51 43 4 24-11 48-34 56-7 103-85 188-187 204-5 22-16 42-33 57v64h339v-51c0-77 113-136 186-136z m-152 305c0 50 78 93 136 101v-371c-58 8-136 52-136 101z m-376-237h-96c6 17 19 34 31 34h34c12 0 25-17 31-34z m206-271h-508c-9 0-17 8-17 17s8 17 17 17h508c10 0 17-8 17-17s-7-17-17-17z m-17 68h-473c9 96 89 169 185 169h102c96 0 177-73 186-169z m-203 356c-9 0-17-8-17-17v-68h-34v68c0 28 23 51 51 51h356v-34z m0 0m-254-509c0 10-8 17-17 17s-17-7-17-17v-17c0-9 8-17 17-17s17 8 17 17z m0 0m68 0c0 10-8 17-17 17s-17-7-17-17v-101c0-10 7-17 17-17s17 7 17 17z m0 0m67 0c0 10-7 17-16 17s-17-7-17-17v-17c0-9 7-17 17-17s16 8 16 17z m0 0m68 0c0 10-7 17-17 17s-17-7-17-17v-101c0-10 8-17 17-17s17 7 17 17z m0 0m68 0c0 10-8 17-17 17s-17-7-17-17v-17c0-9 8-17 17-17s17 8 17 17z m0 0m68 0c0 10-8 17-17 17s-17-7-17-17v-101c0-10 8-17 17-17s17 7 17 17z m0 0m68 0c0 10-8 17-17 17s-17-7-17-17v-17c0-9 7-17 17-17s17 8 17 17z m0 0m-356-152c-10 0-17-8-17-17v-51c0-10 7-17 17-17s17 7 17 17v51c0 9-8 17-17 17z m0 0m135 0c-9 0-17-8-17-17v-51c0-10 8-17 17-17s17 7 17 17v51c0 9-7 17-17 17z m0 0m136 0c-9 0-17-8-17-17v-51c0-10 8-17 17-17s17 7 17 17v51c0 9-8 17-17 17z m0 0m136 0c-10 0-17-8-17-17v-51c0-10 7-17 17-17s16 7 16 17v51c0 9-7 17-16 17z m0 0m16 152c0 10-7 17-16 17s-17-7-17-17v-101c0-10 7-17 17-17s16 7 16 17z m0 0m-474-85c0 10-8 17-17 17s-17-7-17-17v-101c0-10 8-17 17-17s17 7 17 17z m0 0m135 0c0 10-7 17-16 17s-17-7-17-17v-101c0-10 7-17 17-17s16 7 16 17z m0 0m136 0c0 10-8 17-17 17s-17-7-17-17v-101c0-10 8-17 17-17s17 7 17 17z m0 0m136 0c0 10-8 17-17 17s-17-7-17-17v-101c0-10 7-17 17-17s17 7 17 17z m0 0m-418-153c-3 1-6 1-9 1-1-1-3-1-4-1-1-1-2-1-3-2 0-1-1-1-2-2-2-2-3-4-4-6-1-2-1-4-1-6 0-7 4-13 10-16 7-3 14-1 19 4s6 12 4 18c-1 2-2 4-4 6-2 1-4 3-6 4z m0 0m117-4c-1-2-2-4-3-6-3-6-1-13 3-18 2-2 4-3 6-4 6-2 14-1 19 4 4 5 6 12 3 18-1 2-2 4-3 6-7 6-18 6-25 0z m0 0m157 2c0 1-1 1-2 2-1 0-3 0-4 0-3 1-6 1-9 0-2-1-4-3-6-4-1-2-3-4-3-6-3-6-2-13 3-18 2-2 4-3 6-4 6-2 13-1 18 4 5 5 6 12 4 18-1 2-2 4-4 6-1 1-2 1-3 2z m0 0m115-2c-2-2-3-4-4-6-1-2-1-4-1-6 0-5 1-9 5-12 1-2 3-3 5-4 5-2 11-1 16 2s8 8 8 14c0 2-1 4-2 6-1 2-2 4-3 6-7 6-18 6-24 0z m0 0" horiz-adv-x="1000" />

<glyph glyph-name="shower" unicode="&#xe80e;" d="M767 850h-160c-99 0-179-80-181-178-58-8-106-47-126-102h-6c-12 0-21-9-21-21v-67c0-12 9-22 21-22h307c12 0 22 10 22 22v67c0 12-10 21-22 21h-5c-20 55-69 94-126 102 1 74 62 134 137 134h160c12 0 22 10 22 22s-10 22-22 22z m-188-346h-263v23h263v-23z m-31 66h-201c20 36 58 60 101 60s80-24 100-60z m-228-156c-12 2-23-6-25-18l-10-66c-2-12 6-23 18-25 1-1 2-1 3-1 11 0 20 8 22 19l10 66c2 12-6 24-18 25z m-24-152c-12 2-23-7-25-18l-11-67c-2-12 6-23 18-25 1 0 2 0 4 0 10 0 19 7 21 18l11 67c2 12-6 23-18 25z m-25-153c-12 2-23-6-25-18l-11-67c-1-12 7-23 18-25 2 0 3 0 4 0 10 0 20 7 21 18l11 67c2 12-6 23-18 25z m-24-153c-12 2-24-6-25-18l-11-63c-1-12 7-23 19-25 1 0 2 0 3 0 11 0 20 8 22 18l10 63c2 12-7 23-18 25z m142 150c-12 0-23-9-23-21l-4-68c-1-12 9-22 21-23 0 0 1 0 1 0 11 0 21 9 22 21l3 68c1 12-8 22-20 23z m8 154c-12 1-22-8-23-20l-4-68c0-12 9-22 21-23 0 0 1 0 1 0 12 0 21 9 22 21l4 67c0 12-9 22-21 23z m-17-309c-12 1-22-9-23-21l-3-57c0-12 9-22 21-23 0 0 1 0 1 0 12 0 21 9 22 21l3 57c1 12-9 22-21 23z m25 464c-12 0-22-9-23-21l-3-67c-1-12 8-23 20-23 1 0 1 0 2 0 11 0 21 9 21 20l4 68c1 12-9 22-21 23z m107-421c0 0 0 0 1 0 12 1 21 11 20 23l-3 68c-1 12-11 21-23 21-12-1-22-11-21-23l4-68c0-12 10-21 22-21z m26-64c-1 12-11 22-23 21-12-1-21-11-21-23l4-57c0-12 10-21 21-21 1 0 1 0 1 0 12 1 22 11 21 23l-3 57z m-43 374c0 0 1 0 1 0 12 0 21 11 21 23l-4 67c-1 12-11 21-23 21-12-1-21-11-20-23l3-68c1-11 10-20 22-20z m8-155c1 0 1 0 1 0 12 1 22 11 21 23l-4 68c0 12-11 21-23 20-12-1-21-11-20-23l3-67c1-12 11-21 22-21z m139-150c12 2 20 13 18 25l-11 67c-2 12-13 20-25 18-12-2-20-13-18-25l11-67c2-11 11-18 21-18 2 0 3 0 4 0z m32-61c-2 12-13 20-25 18-12-2-20-13-18-25l10-63c2-10 11-18 21-18 2 0 3 0 4 0 12 2 20 13 18 25l-10 63z m-81 367c12 2 20 13 18 25l-11 66c-2 12-13 20-25 18-12-1-20-13-18-25l11-66c1-11 11-19 21-19 1 0 3 0 4 1z m24-153c12 2 20 13 18 25l-10 67c-2 11-13 20-25 18-12-2-20-13-18-25l10-67c2-11 11-18 22-18 1 0 2 0 3 0z" horiz-adv-x="1000" />

<glyph glyph-name="toilet-paper" unicode="&#xe80f;" d="M706 629c-9-1-16-9-15-18 1-12 2-24 2-37 1-8 8-15 16-15h1c9 0 16 7 16 16-1 13-1 26-3 39-1 9-8 15-17 15z m0 0m4-79c-9 0-17-6-17-15-2-49-13-97-30-142-4-8 0-18 8-21 9-3 18 0 21 9 20 48 31 100 33 152 0 4-1 8-4 12-3 3-7 5-11 5z m0 0m-97 0c-9 0-17-6-17-15-2-49-12-97-30-142-4-8 0-18 9-21 8-3 17 0 21 9 19 48 30 100 32 152 0 4-1 8-4 12-3 3-7 5-11 5z m0 0m-4 79c-9-1-15-9-15-18 2-12 2-24 3-37 0-8 7-15 16-15h0c9 0 16 7 16 16 0 13-1 26-3 39 0 9-8 15-17 15z m0 0m375 43h-32c-27 0-49-22-49-49v-16h-17c-8 125-47 242-112 242h-548c-67 0-104-123-111-242h-18v16c0 27-22 49-49 49h-32c-9 0-16-8-16-17v-193c0-9 7-16 16-16h32c27 0 49 21 49 48v16h18c6-109 38-221 95-239v-370c0-9 7-17 16-17 31 0 44 31 55 55 7 17 16 36 26 36s17-18 25-36c11-24 25-55 55-55 31 0 45 31 55 55 8 17 16 36 26 36 10 0 18-19 26-36 10-24 24-55 55-55 30 0 44 31 54 55 8 17 16 36 26 36s18-19 26-36c11-24 24-55 55-55s44 31 55 55c7 17 16 36 25 36 9 0 17 7 17 16v288c45 32 72 129 79 231h17v-16c0-27 22-48 49-48h32c9 0 16 7 16 16v193c0 9-7 17-16 17z m-919-178c0-9-8-16-17-16h-16v161h16c9 0 17-7 17-16z m32 81h81c0-6-1-11-1-16s1-11 1-16h-81z m145 0c0-5 0-11 0-16s0-11 0-16h-32c0 5 0 10 0 16s0 11 0 16z m-28 32c2 11 6 21 12 31 6-10 9-20 11-31z m23-97c-2-11-5-21-11-30-6 9-10 19-12 30z m-90 0h35c6-36 20-64 44-64 33 0 48 57 48 113s-15 113-48 113c-24 0-38-29-44-65h-35c8 126 46 210 79 210 34 0 81-98 81-258s-47-258-81-258c-33 0-71 83-79 209z m627-506c-19-9-30-32-39-52-7-16-16-35-25-35s-18 19-26 35c-11 25-24 55-55 55s-44-30-55-55c-7-16-16-35-25-35-10 0-19 19-26 35-11 25-24 55-55 55-31 0-44-30-55-55-8-16-16-35-26-35-9 0-18 19-25 35-11 25-25 55-55 55s-45-30-56-55c-3-6-6-13-9-20v336h532z m0 297h-495c39 51 60 157 60 258s-21 206-60 258h237c16 0 34-21 48-57 3-6 9-10 15-10 2 0 5 1 7 1 8 4 12 13 8 21-6 16-14 31-24 45h43c16 0 34-21 48-57 3-6 9-10 15-10 2 0 4 1 6 1 9 4 12 13 9 21-6 16-14 31-24 45h107c34 0 81-98 81-258s-47-258-81-258z m113 242c0 5 0 10 0 16s0 10 0 16h16v-32z m81-65h-16c-9 0-16 7-16 16v129c0 9 7 16 16 16h16z m0 0m-291-419h33v-33h-33z m0 0m49 0h32v-33h-32z m0 0m0 48h32v-32h-32z m0 0" horiz-adv-x="1000" />

<glyph glyph-name="toilet-paper-1" unicode="&#xe810;" d="M339 567c-8 0-15-6-15-14v-25c0-8 7-14 15-14 8 0 14 6 14 14v25c0 8-6 14-14 14z m0 0m-242 0c-8 0-14-6-14-14v-25c0-8 6-14 14-14 8 0 15 6 15 14v25c0 8-7 14-15 14z m0 0m151-20c-2 2-13 6-20-4-3-5-8-6-10-6-2 0-7 1-10 6-4 7-14 8-20 4-7-4-9-13-5-20 8-12 21-19 35-19 14 0 27 7 34 19 5 7 3 16-4 20z m0 0m366 135c-23 0-44-16-59-46-14-26-21-61-21-98 0-37 7-72 21-99 15-30 36-46 59-46 19 0 38 12 52 34 4 6 2 15-5 20-6 4-16 2-20-4-5-8-15-21-27-21-24 0-51 48-51 116s27 115 51 115 50-47 50-115c0-15-1-29-4-42-1-8 4-16 12-17 8-2 16 3 17 11 3 15 4 31 4 48 0 37-7 72-20 98-15 30-36 46-59 46z m0 0m357-443c-19 14-42 17-64 10l-86-28v317c0 82-21 160-59 218-39 61-92 94-148 94h-407c-56 0-109-33-148-94-38-58-59-136-59-218 0-83 21-160 59-219 39-60 92-94 148-94h407c56 0 109 34 148 94 12 18 21 37 30 58v-359c0-29 12-56 31-75h-444c-60 0-109 49-109 110v124c0 8-6 14-14 14-8 0-15-6-15-14v-124c0-77 62-139 138-139h517c57 0 104 47 104 104v164c0 23-11 44-29 57z m-764 16c-46 0-90 28-124 80-34 54-54 126-54 203 0 76 20 148 54 202 34 52 78 81 124 81h318c-22-16-42-38-60-65-38-58-58-136-58-218 0-83 20-160 58-219 18-27 38-49 60-64z m531 80c-34-52-78-80-124-80s-91 28-124 80c-35 54-54 126-54 203 0 76 19 148 54 202 33 52 77 81 124 81s90-29 124-81c34-54 54-126 54-202 0-77-20-149-54-203z m233-317c0-41-34-75-75-75-41 0-75 34-75 75v172l96 31c12 5 26 2 37-5 11-8 17-21 17-34z m0 0" horiz-adv-x="1000" />

<glyph glyph-name="bicycle" unicode="&#xe811;" d="M787 496c-29 0-57-6-82-17l-61 117h85c9 0 17-7 17-16s-8-17-17-17h-18c-10 0-17-8-17-17s7-17 17-17h18c28 0 51 23 51 51s-23 51-51 51h-113c-6 0-11-3-14-9-3-5-4-11-1-16l30-59h-248l-25 49h40c9 0 17 8 17 18s-8 17-17 17h-113c-9 0-17-8-17-17s8-18 17-18h35l33-65-39-61c-30 16-64 26-101 26-117 0-213-96-213-214 0-117 96-213 213-213 112 0 204 87 213 196h50l-20-63h-11c-9 0-17-8-17-18s8-17 17-17h62c9 0 17 8 17 17s-8 18-17 18h-15l23 73 143 221 16-33c-60-37-100-104-100-181 0-117 95-213 213-213 117 0 213 96 213 213 0 118-96 214-213 214z m-416 0l100-196h-45c-5 61-37 116-83 152l28 44z m20-196h-146l79 123c37-30 62-74 67-123z m-178-196c-98 0-179 80-179 178 0 99 81 179 179 179 30 0 58-7 82-20l-96-149c-4-5-4-12-1-18 3-5 9-9 15-9h178c-9-90-85-161-178-161z m288 213l-100 196h227l-127-196z m286-213c-99 0-179 80-179 178 0 63 33 119 82 151l82-158c3-6 9-10 15-10 3 0 5 1 8 2 8 5 12 15 7 23l-81 158c20 9 43 13 66 13 99 0 179-80 179-179 0-98-80-178-179-178z" horiz-adv-x="1000" />

<glyph glyph-name="outdoors-table-with-chairs-couple-and-umbrella" unicode="&#xe812;" d="M972 379c0 260-212 471-472 471s-471-211-471-471v-29h445v-203h-159c-15 0-28-12-28-28 0-15 13-28 28-28h159v-213c0-15 12-28 28-28 15 0 28 13 28 28v213h155c16 0 28 13 28 28 0 16-12 28-28 28h-155v203h442v29z m-458 28c-4 2-8 3-12 3-5 0-9-1-13-3h-403c14 216 195 387 414 387 220 0 400-171 414-387h-400z m-443-234c-15 0-28-12-28-28v-131-136c0-15 13-28 28-28 16 0 29 13 29 28v80h164v-80c0-15 12-28 28-28 15 0 28 13 28 28v136h-220v131c0 16-13 28-29 28z m886-295v136 131c0 16-13 28-28 28-16 0-28-12-28-28v-131h-221v-136c0-15 13-28 28-28 16 0 29 13 29 28v80h164v-80c0-15 12-28 28-28 15 0 28 13 28 28z" horiz-adv-x="1000" />

<glyph glyph-name="barbequeue" unicode="&#xe813;" d="M324 648c-16-10-38-25-38-55 0-11 9-20 20-20s19 9 19 20c0 8 6 13 21 23 16 11 38 26 38 56 0 30-22 45-38 56-15 10-21 15-21 23s6 14 21 24c16 11 38 25 38 56 0 10-9 19-19 19-11 0-20-9-20-19 0-9-6-14-21-24-16-11-38-26-38-56 0-30 22-45 38-56 15-10 21-14 21-23 0-9-6-14-21-24z m0 0m135 0c-16-10-38-25-38-55 0-11 9-20 20-20s19 9 19 20c0 8 6 13 21 23 16 11 38 26 38 56 0 30-22 45-38 56-15 10-21 15-21 23s6 14 21 24c16 11 38 25 38 56 0 10-9 19-20 19-11 0-19-9-19-19 0-9-6-14-21-24-16-11-38-26-38-56 0-30 22-45 38-56 15-10 21-14 21-23 0-9-6-14-21-24z m0 0m135 0c-16-10-38-25-38-55 0-11 9-20 19-20s20 9 20 20c0 8 6 13 21 23 16 11 38 26 38 56 0 30-22 45-38 56-15 10-21 15-21 23s6 14 21 24c16 11 38 25 38 56 0 10-9 19-20 19-11 0-20-9-20-19 0-9-6-14-20-24-16-11-38-26-38-56 0-30 22-45 38-56 14-10 20-14 20-23 0-9-6-14-20-24z m0 0m292-246h-72c2 14 4 28 5 42 22 8 38 30 38 55 0 32-26 57-57 57h-694c-32 0-58-25-58-57 0-25 16-47 39-55 0-14 2-28 4-42h-71c-11 0-20-9-20-20 0-10 9-19 20-19h80c26-97 92-178 179-225l-46-87c0 0 0 0 0 0l-86-162h-30c-11 0-20-9-20-20 0-10 9-19 20-19h83c11 0 19 9 19 19 0 11-8 20-19 20h-9l71 133h386l71-133h-14c-10 0-19-9-19-20 0-10 9-19 19-19h83c11 0 20 9 20 19 0 11-9 20-20 20h-25l-86 162c0 0 0 0 0 0l-48 89c86 47 150 127 177 223h80c10 0 19 9 19 19 0 11-9 20-19 20z m-603-341l32 60c42-17 89-27 138-27 50 0 98 10 141 29l33-62z m170 72c-174 0-317 137-327 308h653c-10-171-153-308-326-308z m347 347h-694c-11 0-19 8-19 19 0 10 8 18 19 18h694c10 0 18-8 18-18 0-11-8-19-18-19z m0 0m-347-312c101 0 194 51 248 137 6 10 3 22-6 27-9 6-21 3-27-6-47-75-127-119-215-119-11 0-20-9-20-20 0-10 9-19 20-19z m0 0m245 212c3-8 11-13 19-12 8 0 15 6 17 13 3 8 0 17-7 22-6 5-15 5-21 1-8-5-12-15-8-24z m0 0" horiz-adv-x="1000" />

<glyph glyph-name="surfboard" unicode="&#xe814;" d="M171 759c-44 0-80-36-80-80s36-80 80-80c44 0 80 36 80 80s-36 80-80 80z m0-121c-23 0-41 19-41 41 0 23 18 41 41 41 23 0 41-18 41-41 0-22-18-41-41-41z m151 61h-27c-11 0-20-9-20-20s9-19 20-19h27c11 0 20 8 20 19s-9 20-20 20z m-275 0h-27c-11 0-20-9-20-20s9-19 20-19h27c11 0 19 8 19 19s-8 20-19 20z m124-124c-11 0-20-9-20-20v-27c0-11 9-20 20-20 11 0 19 9 19 20v27c0 11-8 20-19 20z m0 275c-11 0-20-9-20-19v-28c0-11 9-19 20-19 11 0 19 8 19 19v28c0 10-8 19-19 19z m121-264l-20 19c-7 8-20 8-27 0-8-7-8-20 0-27l19-20c4-4 9-5 14-5 5 0 10 1 14 5 7 8 7 20 0 28z m-195 195l-19 19c-8 8-20 8-28 0-8-8-8-20 0-28l19-19c4-4 9-6 14-6 5 0 10 2 14 6 8 8 8 20 0 28z m0-176c-8 8-20 8-28 0l-19-19c-8-8-8-20 0-28 4-4 9-5 14-5s10 1 14 5l19 20c8 7 8 20 0 27z m195 195c-8 8-20 8-28 0l-19-19c-8-8-8-20 0-28 4-4 9-6 14-6s10 2 13 6l20 19c7 8 7 20 0 28z m-131-838c-4 3-9 5-14 5-5 0-10-2-14-5-4-4-6-9-6-14s2-10 6-14c4-4 9-6 14-6 5 0 10 2 14 6 3 4 5 9 5 14s-2 10-5 14z m124-79c-3 4-8 6-13 6s-11-2-14-6-6-8-6-14c0-5 2-10 6-13 3-4 8-6 14-6 5 0 10 2 13 6 4 3 6 8 6 13 0 6-2 11-6 14z m172 19c-4 4-9 6-14 6-5 0-10-2-14-6-3-3-5-8-5-14s2-10 5-13c4-4 9-6 14-6 5 0 10 2 14 6 4 3 6 8 6 13s-2 11-6 14z m343 0c-4 4-9 6-14 6-5 0-10-2-14-6s-5-8-5-14 2-10 5-13c4-4 9-6 14-6 5 0 10 2 14 6 4 3 6 8 6 13 0 6-2 11-6 14z m-171-19c-4 4-9 6-14 6-5 0-10-2-14-6-4-3-6-8-6-14 0-5 2-10 6-13 4-4 9-6 14-6 5 0 10 2 14 6 3 3 5 8 5 13 0 6-2 11-5 14z m336 0c-4 4-9 6-14 6-5 0-10-2-14-6s-5-8-5-14c0-5 2-10 5-13 4-4 9-6 14-6 5 0 10 2 14 6 4 3 6 8 6 13 0 6-2 11-6 14z m-142 692c-11 0-19-9-19-20v-607c0-11 8-20 19-20s20 9 20 20v607c0 11-9 20-20 20z m14 84c-4 4-9 6-14 6-5 0-10-2-14-6-3-3-5-8-5-14 0-5 2-10 5-13 4-4 9-6 14-6 5 0 10 2 14 6s6 8 6 13c0 6-2 11-6 14z m144-692h-41c40 112 60 230 60 352 0 178-45 352-130 503-9 18-27 28-47 28-20 0-37-10-47-28-51-90-87-189-108-292-48 94-108 179-181 254-14 14-33 19-52 14s-34-20-39-39c-22-86-32-176-31-267 0 0 0-1 0-1 1-57 7-114 18-170 0 0 0-1 0-1 1-5 2-10 3-15 0 0 0-1 0-1 1-6 2-11 3-16 0 0 0 0 0 0 2-5 3-10 4-15 0 0 0-1 0-1 2-11 5-22 8-33 26-96 65-188 116-272h-267c-11 0-19-8-19-19s8-20 19-20h302c0 0 0 0 0 0s0 0 0 0h183 176 70c10 0 19 9 19 20s-9 19-19 19z m-547 783c2 7 8 10 11 10 2 1 9 2 14-4 58-59 108-126 150-199l-75-129-130 75c0 83 9 166 30 247z m-6-457c-1 4-1 8-2 12-1 2-1 5-2 7-1 5-2 11-3 17-1 3-1 6-2 9 0 3-1 6-1 9-1 3-1 6-2 10 0 2 0 5-1 7-2 13-3 27-5 40 0 1 0 2 0 4-1 4-1 9-2 14 0 0 0 1 0 1-1 11-2 23-2 34l118-69 20-73c2-9 10-15 19-15 1 0 3 0 5 1 10 3 16 13 14 24l-20 73 68 119c9-18 18-36 26-55-6-47-10-95-10-143 0-13 1-27 1-40-1-1-2-2-2-3l-48-83-168 97c0 1 0 2-1 3z m135-326c-53 83-93 174-121 270l152-88c3-1 7-2 10-2 7 0 13 3 17 9l31 54c8-83 27-165 55-243h-144z m335 0h-150c-41 112-63 230-63 352 0 172 43 339 125 484 4 7 11 8 13 8s9-1 13-8c82-145 125-312 125-484 0-122-21-240-63-352z" horiz-adv-x="1000" />

<glyph glyph-name="motorhome-3" unicode="&#xe815;" d="M883 624h-233v33h200c9 0 17 8 17 17 0 27-20 51-47 56-99 18-199 27-300 27h-7c-62 0-125-4-187-11l-13 31c-10 27-29 50-53 66-19 13-46 7-59-12-11-17-9-39 6-54 6-6 10-15 10-24v-23c-1 0-3 0-4 0-27-5-46-29-46-56 0-9 7-17 16-17h167v-33h-195c-48 0-92-31-109-77 0 0 0 0 0 0 0-1-1-2-1-3l-33-98-4-13c-5-21-8-42-8-64v-172c0-22 18-40 40-40h78c10-45 54-74 99-65 32 7 58 32 65 65h386c10-45 54-74 99-65 32 7 58 32 65 65h128c22 0 40 18 40 40v310c0 65-52 117-117 117z m-653 177c-3 3-4 9 0 13 3 3 8 3 12 1 18-12 32-30 40-50l10-23c-14-2-28-4-42-7v18c0 18-7 35-20 48z m-11-104c98 18 198 27 298 27 100 0 199-9 297-27 5-1 9-3 12-6h-619c3 3 8 5 12 6z m164-40h234v-33h-234z m-310-133h159c1 0 1-1 1-2v-63c0-1 0-2-1-2h-181z m894-251l-99 1c-7 20-26 33-47 33h-142c-25 0-46-18-50-43l-10-73h-288l-10 73c-4 25-25 43-50 43h-142c-21 0-40-13-47-33l-49-1v84h934z m-934-76v43l43 0-7-49h-29c-4 0-7 3-7 6z m167-73c-28 0-50 22-50 50 0 28 22 50 50 50 28 0 50-22 50-50 0-28-22-50-50-50z m82 67c-9 45-53 74-99 65-32-7-58-33-65-65h-15l9 69c2 8 9 14 17 14h142c8 0 15-6 17-14l10-69z m468-67c-28 0-50 22-50 50 0 28 22 50 50 50s50-22 50-50c0-28-22-50-50-50z m82 67c-9 45-53 74-99 65-32-7-58-33-65-65h-15l9 69c2 8 9 14 17 14h142c8 0 15-6 17-14l10-69z m128 0h-79l-7 49 93 0v-43c0-3-3-6-7-6z m7 200h-933c1 10 3 21 5 31l1 2h192c19 0 35 16 35 35v63c0 19-16 35-36 35h-142c16 21 40 34 66 34h728c46 0 84-38 84-84z m0 0m-452 166h-180c-19 0-35-16-35-35v-63c0-19 16-35 35-35h180c19 0 35 16 35 35v63c0 19-16 35-35 35z m2-98c0-1-1-2-2-2h-180c-1 0-2 1-2 2v63c0 1 1 2 2 2h180c1 0 2-1 2-2z m0 0m281 98h-179c-20 0-36-16-36-35v-63c0-19 16-35 36-35h179c20 0 35 16 35 35v63c0 19-15 35-35 35z m2-98c0-1-1-2-2-2h-179c-1 0-2 1-2 2v63c0 1 1 2 2 2h179c1 0 2-1 2-2z m0 0m67 65h66v-33h-66z m0 0m0-67h66v-33h-66z m0 0" horiz-adv-x="1000" />

<glyph glyph-name="motorhome-2" unicode="&#xe816;" d="M412 408c-17 28-34 56-52 84h73c0 0-78 125-125 200h59l-100 150-100-150h58l-125-200h73l-52-84m96 134c-6 0-12 3-15 8-3 6-3 12 1 17l41 67c5 8 15 10 23 5 8-5 10-15 6-23l-42-66c-3-5-9-8-14-8z m695-134c-17 28-34 56-52 84h73c0 0-78 125-125 200h59l-100 150-100-150h58l-125-200h73l-52-84m96 134c-6 0-12 3-15 8-3 6-3 12 1 17l41 67c3 5 9 8 15 8 6 0 11-4 14-9 3-5 3-12 0-17l-42-66c-3-5-9-8-14-8z m50-184v73c1 23-17 43-40 44h-199c-14 0-26-8-33-20l-28-47 300-50z m216-316v-84c0-9-7-16-16-16h-873c-7 0-12 3-15 9l-29 57 933 34z m0 32v-66h-933l-33 67v283c0 28 22 50 50 50h874c17 0 31-12 33-29l9-84c1-9-2-18-8-26s-15-11-25-11h-17v-115c0-11 6-22 15-28l21-13c9-7 14-17 14-28z m-866 234h100c18 0 33-15 33-33v-67c0-18-15-33-33-33h-100c-19 0-34 15-34 33v67c0 18 15 33 34 33z m233 0h50c18 0 33-15 33-33v-67c0-18-15-33-33-33h-50c-18 0-33 15-33 33v67c0 18 15 33 33 33z m500-50h83v-133h-83c-18 0-33 15-33 33v67c0 18 15 33 33 33z m-133 84h-50c-9 0-17-8-17-17s8-17 17-17h50c9 0 16 8 16 17s-7 17-16 17z m183 0h-117c-9 0-16-8-16-17s7-17 16-17h117c9 0 17 8 17 17s-8 17-17 17z m-117-250c0-9-7-17-16-17h-750v33h750c9 0 16-7 16-16z m200-234h-966c-9 0-17 8-17 17 0 9 8 17 17 17h966c10 0 17-8 17-17 0-9-7-17-17-17z m-466 150v200c0 37 30 67 66 67 37 0 67-30 67-67v-200" horiz-adv-x="1000" />

<glyph glyph-name="motorhome" unicode="&#xe817;" d="M978 107l-21 14c-4 3-7 8-7 14v99c14 0 28 6 37 16 10 11 14 25 13 39l-10 83c-2 26-24 45-49 45h-30c-7 11-14 22-21 33h43c6 0 12 3 15 8 3 6 3 12 0 17-1 1-63 115-110 192h29c6 0 11 3 14 9 3 5 3 12 0 17l-100 150c-4 4-9 7-14 7-6 0-11-3-14-7l-100-150c-4-5-4-12-1-17 3-6 9-9 15-9h29l-106-183h-62c-20-1-38-11-47-28l-24-39h-35l-18 29c-5 7-9 14-14 21h43c6 0 12 3 15 9 3 5 3 11-1 16 0 0-62 100-109 175h29c6 0 11 3 14 9s3 12 0 17l-100 150c-4 4-9 7-14 7-6 0-11-3-14-7l-100-150c-4-5-4-12-1-17 3-6 9-9 15-9h28l-109-175c-3-5-3-11-1-16 3-6 9-9 15-9h43l-31-50h-45c-37 0-67-30-67-67v-283c0-3 1-5 2-7l62-125c5-11 17-18 30-18h158c2-12 8-24 15-33h-250c-9 0-17-8-17-17s8-17 17-17h966c10 0 17 8 17 17s-7 17-17 17h-83c7 9 12 21 15 33h52c18 0 33 15 33 33v116c0 16-8 32-22 41z m-239 568c3 5 3 12 0 17-3 5-8 8-14 8h-27l69 104 69-104h-28c-6 0-11-3-14-8-3-6-3-12 0-17 35-55 87-147 111-191h-45c-6 0-11-4-14-9-3-5-3-12 0-17 9-14 17-27 26-41h-89v6c2 32-24 59-56 61h-98l110 191z m-230-236c4 7 11 11 19 11h199c14-1 24-13 23-27v-6h-254l13 22z m-379 61l109 175c3 5 4 11 1 17-3 5-9 8-15 8h-27l69 104 69-104h-28c-6 0-11-3-14-8-3-6-3-12 0-17 34-54 84-134 109-175h-43c-6 0-11-3-14-8-3-6-3-12 0-17 10-16 20-31 30-47l6-11h-231l36 58c3 5 3 11 0 17l0 0c-2 5-8 8-14 8h-43z m203-616c-27 0-50 22-50 50s23 50 50 50 50-23 50-50-22-50-50-50z m67 0c7 9 12 21 15 33h337c2-12 8-24 15-33h-367z m433 0c-27 0-50 22-50 50s23 50 50 50 50-23 50-50-22-50-50-50z m134 133h-34c-9 0-16-7-16-17s7-16 16-16h34v-34h-52c-8 39-42 67-82 67s-73-28-81-67h-337c-8 39-42 67-82 67s-73-28-81-67h-158l-17 34h140c9 0 16 7 16 16s-7 17-16 17h-157l-25 50h465v-50h-50c-9 0-17-7-17-17s8-16 17-16h267c9 0 16 7 16 16s-7 17-16 17h-50v50h100c9 0 16 7 16 17 0 9-7 16-16 16h-100v100c0 46-38 84-84 84s-83-38-83-84v-100h-467v250c0 19 15 34 34 34h874c8 0 15-7 16-15l10-84c0-4-1-9-5-13-3-3-7-5-12-5h-100c-28 0-50-22-50-50v-67c0-27 22-50 50-50h81c2-2 5-5 8-7l20-13c5-3 8-9 8-14v-49z m-434 0v183c0 28 23 50 50 50s50-22 50-50v-183h-100z m384 217v-99-1h-67c-9 0-17 7-17 16v67c0 9 8 17 17 17h67z m-700 83h-100c-28 0-50-22-50-50v-67c0-27 22-50 50-50h100c27 0 50 23 50 50v67c0 28-23 50-50 50z m16-117c0-9-7-16-16-16h-100c-9 0-17 7-17 16v67c0 9 8 17 17 17h100c9 0 16-8 16-17v-67z m167 117h-50c-28 0-50-22-50-50v-67c0-27 22-50 50-50h50c28 0 50 23 50 50v67c0 28-22 50-50 50z m17-117c0-9-8-16-17-16h-50c-9 0-17 7-17 16v67c0 9 8 17 17 17h50c9 0 17-8 17-17v-67z m300 134h-50c-10 0-17-8-17-17 0-9 7-17 17-17h50c9 0 16 8 16 17 0 9-7 17-16 17z m200-17c0 9-8 17-17 17h-117c-9 0-16-8-16-17 0-9 7-17 16-17h117c9 0 17 8 17 17z m-709 219c4-2 8-3 12-2 5 1 9 4 11 7l42 67c4 8 2 18-6 23s-18 3-23-5l-41-67c-3-4-4-8-3-12 1-5 4-9 8-11z m559 95c-8 5-18 2-23-6l-49-83c-4-8-2-18 6-23s19-2 23 6l49 84c4 8 2 18-6 22z" horiz-adv-x="1000" />

<glyph glyph-name="ayak" unicode="&#xe818;" d="M550 400c30-29 69-44 108-44s78 15 108 44c59 60 59 157 0 216-59 59-156 59-216 0-59-59-59-156 0-216z m108 221c29 0 58-11 80-33 44-44 44-116 0-160-44-44-116-44-160 0s-44 116 0 160c22 22 51 33 80 33z m0 0m-208-321c-60 59-156 59-216 0-59-60-59-156 0-216 30-29 69-44 108-44 39 0 78 15 108 44 59 60 59 156 0 216z m-188-188c-44 44-44 116 0 160 22 22 51 33 80 33 29 0 58-11 80-33 44-44 44-116 0-160-44-44-116-44-160 0z m0 0m723-133l-130 130c-19 19-51 19-70 0l-8-8-79 79c84 87 153 187 204 296 52 111 85 230 98 352 1 6-2 12-6 16-4 4-10 7-16 6-124-13-245-47-357-100-10-5-14-17-10-26 5-10 17-14 26-10 102 49 210 80 321 94-28-225-130-437-288-600l-312 312c45 44 94 84 146 118 9 6 11 19 5 28-6 8-18 11-27 5-54-36-105-78-152-123l-79 79 8 8c9 9 14 22 14 35 0 13-5 26-14 35l-130 130c-10 10-22 15-36 15-13 0-26-5-35-15l-43-43c-20-19-20-51 0-71l130-130c9-10 22-14 35-14s26 4 36 14l7 8 79-79c-84-87-153-187-204-296-52-111-85-230-98-352-1-6 2-12 6-16 3-4 8-6 14-6 0 0 1 0 2 0 107 11 212 38 311 80 10 4 15 15 10 25-4 10-15 15-25 11-88-37-181-62-276-74 29 225 130 437 288 601l313-313c-58-55-121-104-188-145-10-5-13-17-7-27 4-6 10-9 17-9 3 0 7 1 10 3 70 42 136 93 195 150l79-79-8-7c-19-20-19-52 0-71l130-130c10-10 23-15 36-15 12 0 25 5 35 15l43 43c10 9 15 22 15 35 0 14-5 26-15 36z m-813 640l-130 130c-4 4-4 11 0 15l44 44c2 2 4 3 7 3 3 0 6-1 8-3l130-130c2-2 3-5 3-8 0-3-1-6-3-8l-21-21c0 0 0 0 0 0 0 0 0 0 0 0l-22-22c-4-4-12-4-16 0z m786-683l-44-44c-4-4-11-4-15 0l-130 130c-2 2-3 5-3 8 0 3 1 6 3 8l43 43c2 2 5 3 8 3 3 0 6-1 8-3l130-130c2-2 3-5 3-8 0-3-1-5-3-7z m0 0m-398 740c3 0 6 1 9 3l0 0c10 5 13 17 8 26-6 10-18 13-27 8-9-6-13-18-7-27 3-6 10-10 17-10z m0 0m-172-678c-10-5-14-17-9-26 3-7 10-11 17-11 3 0 6 1 9 2l0 0c10 5 14 17 9 26-5 10-17 14-26 9z m0 0" horiz-adv-x="1000" />

<glyph glyph-name="solar-panel" unicode="&#xe819;" d="M686-111c-6 0-11-2-14-6-4-3-6-8-6-14s2-10 6-13c3-4 8-6 14-6s10 2 13 6c4 3 6 8 6 13s-2 11-6 14c-3 4-8 6-13 6z m0 0m308 181l-154 290c-9 18-28 29-48 29h-138s0 0 0 0h-446c-20 0-39-11-48-29l-154-290c-9-17-8-37 2-53 10-17 27-26 46-26h210c0 0 0 0 0 0 0 0 0 0 0 0h154v-102h-104c-10 0-19-9-19-20s9-19 19-19h293c11 0 20 9 20 19s-9 20-20 20h-25v102h154c0 0 0 0 0 0 0 0 0 0 0 0h210c19 0 36 9 46 26 10 16 11 36 2 53z m-189 272l59-110h-158l-27 118h113c6 0 11-3 13-8z m-242-312h-43v163h155l37-163z m-125 0h-150l37 163h155v-163z m-104 202l27 118h278l27-118z m-139 110c2 5 7 8 13 8h113l-27-118h-158z m-154-305c-1 2-4 8 0 15l75 141h169l-37-163h-194c-8 0-11 5-13 7z m502-148h-86v102h86z m416 148c-2-2-5-7-13-7h-194l-37 163h169l75-141c4-7 1-13 0-15z m0 0m-445 267c-4 4-9 6-14 6s-10-2-14-6c-3-3-6-8-6-14s3-10 6-13c4-4 9-6 14-6s10 2 14 6c3 3 6 8 6 13s-3 11-6 14z m0 0m-203 297c-7-5-11-14-8-22 3-8 11-14 19-13 17 0 33-8 43-21 10-14 12-31 6-47-2-8 0-17 7-22 7-6 17-5 24 0 13 10 30 13 46 8 16-5 28-18 33-34 3-8 10-14 19-14 9 0 16 6 19 14 5 16 17 29 33 34 16 5 33 2 46-8 7-5 17-6 24 0 7 5 10 14 7 22-6 16-4 33 6 47 10 13 26 21 43 21 8-1 16 5 19 13 3 8 0 17-8 22-14 10-22 25-22 42s8 32 22 42c8 5 11 14 8 22-3 8-11 14-19 13-17 0-33 8-43 21-10 14-12 31-6 47 3 8 0 17-7 23-7 5-17 4-24-1-13-10-30-13-46-8s-28 18-33 34c-3 8-10 14-19 14s-16-6-19-14c-5-16-17-29-33-34-16-5-33-2-46 8-7 5-17 6-24 1-7-6-9-15-7-23 6-16 4-33-6-47-10-13-26-21-43-21-8 1-16-5-19-13-3-8 1-17 8-22 14-10 22-25 22-42s-8-32-22-42z m48 88c15 6 28 16 37 29 10 14 16 29 17 45 15-4 32-3 47 2 16 5 30 14 40 26 11-12 24-21 40-26 15-5 32-6 47-2 2-16 7-31 17-45 9-13 22-23 37-29-8-14-13-30-13-46s5-32 13-46c-15-6-28-16-37-29-10-14-15-29-17-45-15 4-32 3-47-2-16-5-29-14-40-26-10 12-24 21-40 26-9 3-18 4-27 4-7 0-14 0-20-2-1 16-7 31-17 45-9 13-22 23-37 29 8 14 13 30 13 46s-5 32-13 46z m0 0m140-127c45 0 81 36 81 81s-36 81-81 81c-45 0-82-36-82-81s37-81 82-81z m0 123c23 0 42-19 42-42s-19-42-42-42c-24 0-42 19-42 42s18 42 42 42z m0 0" horiz-adv-x="1000" />

<glyph glyph-name="oven" unicode="&#xe81a;" d="M817-150h-767c-28 0-50 22-50 50v833c0 28 22 50 50 50h767c27 0 50-22 50-50v-833c0-28-23-50-50-50z m-767 900c-9 0-17-7-17-17v-833c0-9 8-17 17-17h767c9 0 16 8 16 17v833c0 10-7 17-16 17z m0 0m800-200h-833c-9 0-17 8-17 17v166c0 28 22 50 50 50h767c27 0 50-22 50-50v-166c0-9-8-17-17-17z m-817 33h800v150c0 10-7 17-16 17h-767c-9 0-17-7-17-17z m0 0m734-433h-667c-9 0-17 8-17 17v400c0 9 8 16 17 16h667c9 0 16-7 16-16v-400c0-9-7-17-16-17z m-650 33h633v367h-633z m0 0m183-333h-150c-9 0-17 7-17 17v33c0 28 23 50 50 50h84c27 0 50-22 50-50v-33c0-10-8-17-17-17z m-133 33h116v17c0 9-7 17-16 17h-84c-9 0-16-8-16-17z m0 0m633 867h-733c-9 0-17 8-17 17v33c0 28 22 50 50 50h667c27 0 50-22 50-50v-33c0-9-8-17-17-17z m-717 33h700v17c0 9-7 17-16 17h-667c-9 0-17-8-17-17z m0 0m134-166h-100c-9 0-17 7-17 16v67c0 9 8 17 17 17h100c9 0 16-8 16-17v-67c0-9-7-16-16-16z m-84 33h67v33h-67z m0 0m34-250c-5 0-9 2-12 5-7 6-7 17 0 24l83 83c7 6 17 6 24 0 6-7 6-17 0-24l-83-83c-4-3-8-5-12-5z m0 0m116 33c-4 0-8 2-11 5-7 7-7 17 0 24l50 50c6 6 17 6 23 0 7-7 7-17 0-24l-50-50c-3-3-7-5-12-5z m0 0m-116-116c-5 0-9 1-12 5-7 6-7 17 0 23l33 34c7 6 17 6 24 0 6-7 6-18 0-24l-33-33c-4-4-8-5-12-5z m0 0m316 300h-66c-9 0-17 7-17 16v67c0 9 8 17 17 17h66c10 0 17-8 17-17v-67c0-9-7-16-17-16z m-50 33h34v33h-34z m0 0m184-33h-67c-9 0-17 7-17 16v67c0 9 8 17 17 17h67c9 0 16-8 16-17v-67c0-9-7-16-16-16z m-50 33h33v33h-33z m0 0m183-33h-67c-9 0-16 7-16 16v67c0 9 7 17 16 17h67c9 0 17-8 17-17v-67c0-9-8-16-17-16z m-50 33h33v33h-33z m0 0m-183-650h-167c-9 0-17 8-17 17 0 9 8 16 17 16h167c9 0 16-7 16-16 0-9-7-17-16-17z m0 0m300-150h-767c-28 0-50 22-50 50v183c0 10 8 17 17 17h833c9 0 17-7 17-17v-183c0-28-23-50-50-50z m-784 217v-167c0-9 8-17 17-17h767c9 0 16 8 16 17v167z m0 0m200 316c-4 0-8 2-11 5-7 7-7 17 0 24l16 17c7 6 17 6 24 0 6-7 6-18 0-24l-17-17c-3-3-7-5-12-5z m0 0m117 267h-67c-9 0-16 8-16 17 0 9 7 16 16 16h67c9 0 17-7 17-16 0-9-8-17-17-17z m0 0" horiz-adv-x="1000" />

<glyph glyph-name="coffe-pot" unicode="&#xe81b;" d="M763 600l-39 39c-6 7-15 11-25 11h-35l-7 7c-7 6-15 10-24 10h-65c-3 10-9 19-17 25l-58 47c-9 7-20 11-31 11h-55v50c0 28-23 50-50 50h-34c-27 0-50-22-50-50v-50h-55c-11 0-22-4-31-11l-58-47c-4-2-6-5-9-9h-87c-13 0-26-8-31-21-5-13-1-27 9-37l126-113 31-155c4-20 19-35 39-39v-35h-5c-25 0-46-18-50-42l-39-333c-2-15 2-29 11-41 10-11 24-17 38-17h356c14 0 28 6 37 17 10 11 14 26 12 40l-39 334c-4 25-25 42-50 42h-5v35c20 4 35 19 39 39l18 93h53c9 0 17 4 24 10l1 1 49-36v-52l-54-68c-11-13-10-32 2-44l28-28c13-13 34-13 47 0l84 84c6 6 9 14 9 23v236c0 9-3 18-10 24z m-301 117c3 0 7-2 10-4l37-30h-59l-16 34z m-195-34l17 34h112l17-34z m155-33l-30-300h-104l-30 300z m-115 150c0 9 7 17 16 17h34c9 0 16-8 16-17v-50h-66z m-99-87c3 2 7 4 10 4h28l-16-34h-59z m-175-63h77c0-2 0-4 1-6l15-78z m111 0h81l30-300h-38c-8 0-14 6-16 13z m18-767c-5 0-9 2-12 6-4 4-5 9-4 14l39 333c2 8 9 14 17 14h53l-30-367z m96 0l31 367h102l31-367z m220 367c8 0 15-6 17-13l39-334c1-5-1-10-4-14-3-4-8-6-12-6h-63l-30 367z m-238 33v34h200v-34z m239 80c-2-7-8-13-16-13h-38l30 300h81z m58 120l30 150h66l24-23v-53l-74-74z m203-143l-83-83-28 28 54 67c4 6 7 13 7 21v52c0 11-5 20-13 27l-45 33 48 48c6 7 10 15 10 24v53c0 2 0 4-1 6l11 0 40-40z m0 0m-117 243c0-9-7-16-16-16-10 0-17 7-17 16s7 17 17 17c9 0 16-7 16-17z m0 0" horiz-adv-x="1000" />

<glyph glyph-name="coffee-machine" unicode="&#xe81c;" d="M950 533h-133c-23 0-41-13-48-33h-36v50h134c36 0 66 30 66 67v166c0 37-30 67-66 67h-800c-37 0-67-30-67-67v-866c0-37 30-67 67-67h800c36 0 66 30 66 67 0 36-30 66-66 66h-185c15 10 29 21 41 33 3 0 6 1 9 1 3 0 8 0 11 0 32 0 60 3 85 40 25 33 22 58 15 73-9 19-31 32-60 36 0 0 0 0 0 1 0 10-6 16-16 16h-400c-10 0-17-6-17-16 0-78 40-145 101-184h-118c-18 0-33 15-33 34v500c0 18 15 33 33 33h67v-83c0-29 22-50 50-50h50v-17c0-10 7-17 17-17s16 7 16 17v17h67v-17c0-10 7-17 17-17s16 7 16 17v17h50c29 0 50 21 50 50h36c7-20 25-34 48-34h133c28 0 50 22 50 50s-22 50-50 50z m-135-418c7-12-5-28-12-38-16-22-31-27-53-27 15 25 26 53 31 83 18-3 29-8 34-18z m-432 35h365c-3-39-18-75-45-105 0-1-1-2-1-3-34-36-81-59-135-59-97 0-175 74-184 167z m-50 433c-36 0-66-30-66-66v-500c0-37 30-67 66-67h534c18 0 33-15 33-33s-15-34-33-34h-800c-19 0-34 15-34 34v33h84c10 0 16 7 16 17 0 10-6 16-16 16h-84v34h84c10 0 16 6 16 16s-6 17-16 17h-84v33h84c10 0 16 7 16 17s-6 17-16 17h-84v33h84c10 0 16 7 16 17s-6 16-16 16h-84v600c0 19 15 34 34 34h800c18 0 33-15 33-34v-166c0-19-15-34-33-34h-134-333-67z m367-116c0-10-7-17-17-17h-66-100-67c-10 0-17 7-17 17v83h267v-83z m250 0h-133c-10 0-17 6-17 16s7 17 17 17h133c10 0 17-7 17-17s-7-16-17-16z m-417-134c0 10-6 17-16 17s-17-7-17-17v-16c0-10 7-17 17-17s16 7 16 17v16z m-16-66c-10 0-17-7-17-17v-17c0-10 7-16 17-16s16 6 16 16v17c0 10-6 17-16 17z m116 66c0 10-6 17-16 17s-17-7-17-17v-16c0-10 7-17 17-17s16 7 16 17v16z m-16-66c-10 0-17-7-17-17v-17c0-10 7-16 17-16s16 6 16 16v17c0 10-6 17-16 17z m-467 516c-47 0-83-36-83-83 0-47 36-83 83-83 47 0 83 36 83 83 0 47-36 83-83 83z m0-133c-28 0-50 22-50 50s22 50 50 50 50-22 50-50-22-50-50-50z m200 133c-47 0-83-36-83-83 0-47 36-83 83-83s83 36 83 83c0 47-36 83-83 83z m0-133c-28 0-50 22-50 50s22 50 50 50 50-22 50-50-22-50-50-50z" horiz-adv-x="1000" />

<glyph glyph-name="coffee-machine-1" unicode="&#xe81d;" d="M754 686c-5 3-11 2-16-1-5-4-8-10-7-16 0-6 4-11 10-13 28-13 52-37 65-65 2-6 7-10 13-10 6-1 12 2 16 7 3 5 4 11 1 16-16 37-45 66-82 82z m0 0m13 83c-9 2-17-3-20-11-3-9 2-18 10-21 62-20 111-68 130-130 2-7 9-12 16-12 2 0 3 1 5 1 9 3 14 12 11 21-23 72-80 129-152 152z m0 0m233-139c-27 109-111 193-220 220-9 2-18-4-20-13-2-9 3-18 12-20 97-23 172-98 195-195 2-7 9-13 16-13 2 0 3 1 4 1 5 1 8 4 11 8 2 3 3 8 2 12z m0 0m-817-347c-5 0-9-2-13-6-3-4-4-9-3-14l50-233c2-8 9-13 16-13h217c8 0 15 5 16 13l4 19c27 1 52 10 73 25 53 37 72 101 43 142-17 23-44 36-73 34l3 13c1 5 0 10-3 14-3 4-8 6-13 6z m376-86c19-26 3-69-35-95-14-10-30-17-46-19l28 133c20 4 40-3 53-19z m-312-147l-43 200h275l-42-200z m0 0m425 462c16 2 28 16 28 33v238c0 37-30 67-67 67h-566c-37 0-67-30-67-67v-238c0-17 12-31 28-33l5-1v-528c-18 0-33-15-33-33v-67c0-18 15-33 33-33h634c18 0 33 15 33 33v67c0 18-15 33-33 33v528z m-639 271c0 19 15 34 34 34h566c19 0 34-15 34-34v-238c-105-17-211-26-317-28-106 2-212 11-317 28z m350-433h-66v50h66z m-100 83c-9 0-16 8-16 17v36c28-2 56-3 83-3s55 1 83 3v-36c0-9-7-17-16-17z m384-550h-634v67h634z m-34 100h-566v523c41-6 101-13 166-18v-38c0-28 23-50 50-50v-50c0-18 15-33 34-33h66c19 0 34 15 34 33v50c27 0 50 22 50 50v38c65 5 126 12 166 18z m0 0m-466 767c-37 0-67-30-67-67s30-66 67-66 66 30 66 66-29 67-66 67z m0-100c-19 0-34 15-34 33 0 19 15 34 34 34s33-15 33-34c0-18-15-33-33-33z m0 0m250 33c0 37-30 67-67 67s-67-30-67-67 30-66 67-66 67 30 67 66z m-100 0c0 19 15 34 33 34s33-15 33-34c0-18-15-33-33-33s-33 15-33 33z m0 0m216-66c37 0 67 30 67 66s-30 67-67 67-66-30-66-67 30-66 66-66z m0 100c19 0 34-15 34-34 0-18-15-33-34-33s-33 15-33 33c0 19 15 34 33 34z m0 0" horiz-adv-x="1000" />

<glyph glyph-name="baby-boy" unicode="&#xe81e;" d="M582-86c-10 4-21-1-25-11-3-8-12-14-21-14h-72c-9 0-17 6-21 14-4 10-15 15-25 11-10-4-15-16-11-26 9-23 32-38 57-38h72c25 0 48 15 57 38 4 10-1 22-11 26z m230 101c-6 27-23 51-47 65 5 3 9 7 13 11 18 22 26 50 22 78-7 46-26 89-56 124-22 26-50 47-80 62 37 40 60 94 60 153 0 102-69 189-163 215 13 16 20 35 20 55 0 40-32 72-72 72 0 0 0 0 0 0-16 0-31-5-42-15-13-10-20-25-20-41 0-11 9-20 20-20 11 0 19 9 19 20 0 5 2 9 6 12 4 3 10 5 17 5h0c18 0 33-15 33-33 0-12-5-24-14-33-8-8-20-13-32-13 0 0 0 0 0 0-1 0-1 0-2 0-121-3-218-102-218-224 0-59 23-113 61-153-31-15-59-36-81-62-30-35-49-78-56-124-4-28 4-56 22-78 4-4 8-8 13-11-24-14-41-38-47-65-5-28 2-56 19-78l42-54c17-21 43-33 69-33 14 0 29 4 43 12 37 21 53 67 37 107l-26 63c-1 4-3 9-5 12h143c11 0 19 9 19 20 0 11-8 19-19 19h-181v42c0 5 5 9 10 9h322c5 0 10-4 10-9v-44c-20-11-35-28-43-49l-26-63c-16-40 0-86 37-107 14-8 29-12 44-12 26 0 51 12 68 33l42 54c17 22 24 50 19 78z m-497 493c0 102 83 185 185 185 102 0 185-83 185-185 0-102-83-185-185-185-102 0-185 83-185 185z m21-490l26-63c8-22 0-48-21-60-20-11-47-6-61 12l-42 54c-10 13-14 30-11 46 3 16 13 31 27 39 15 8 32 10 48 4 15-5 28-17 34-32z m325 194c-11 0-19-8-19-19v-20h-283v20c0 11-9 19-20 19-11 0-19-8-19-19v-24c-18-7-30-24-30-44v-28c-14 2-28 9-38 20-11 13-16 30-13 47 11 74 60 135 130 162 37-27 82-42 131-42s94 15 131 42c70-27 119-88 130-162 3-17-2-34-13-47-10-11-23-18-38-20v28c0 19-12 37-29 44v24c0 11-9 19-20 19z m101-251l-42-54c-14-18-41-23-61-12-21 12-29 38-21 60l26 63c6 15 19 27 34 32 6 3 13 4 19 4 10 0 20-3 29-8 14-8 24-23 27-39 3-16-1-33-11-46z m-161 117c-3 3-8 5-14 5s-10-2-13-5c-4-4-6-9-6-14 0-5 2-10 6-14 3-4 8-6 13-6s11 2 14 6c4 4 6 9 6 14s-2 10-6 14z m-47 363c-8 7-21 6-28-3-6-8-16-12-26-12-10 0-20 4-26 12-7 9-19 10-28 3-8-7-9-19-3-27 14-18 35-27 57-27s43 9 57 27c7 8 5 20-3 27z m-103 81c-18 17-47 17-65 0-7-8-7-20 0-28 8-8 20-8 28 0 3 2 7 2 9 0 4-4 9-6 14-6 5 0 10 2 14 6 7 8 7 20 0 28z m163 0c-18 17-47 17-65 0-7-8-7-20 0-28 4-4 9-6 14-6 5 0 10 2 14 6 3 2 7 2 9 0 8-8 20-8 28 0 7 8 7 20 0 28z" horiz-adv-x="1000" />

<glyph glyph-name="dog-pawn" unicode="&#xe81f;" d="M669 383c-45 70-122 112-205 112-84 0-160-42-205-112l-109-170c-18-28-26-60-24-93 3-34 15-65 37-90 22-25 50-43 83-50 32-8 66-4 96 9l2 1c77 33 165 33 241-1 20-9 41-13 62-13 12 0 23 1 35 4 32 7 61 25 83 50 21 25 34 56 36 90 2 33-6 65-24 93z m51-315c-28-32-72-42-111-25-46 20-96 30-145 30-50 0-99-10-145-30l-2-1c-38-16-82-6-110 26-27 32-30 78-7 114l108 169c34 53 92 85 156 85 63 0 121-32 155-85l109-169c23-36 20-82-8-114z m0 0m-540 315c32 12 56 38 69 73 11 33 10 71-3 105-14 35-38 63-69 80-32 18-68 21-100 8-65-25-95-105-66-178 22-59 75-96 128-96 14 0 27 3 41 8z m-115 109c-16 43-2 89 33 103 6 2 13 3 20 3 10 0 21-3 31-8 19-10 34-28 42-50 9-22 9-45 2-65-6-18-19-31-34-37l-1-1c-34-13-76 12-93 55z m0 0m325 23c81 0 147 75 147 168 0 92-66 167-147 167-81 0-147-75-147-167 0-93 66-168 147-168z m0 276c49 0 88-48 88-108 0-60-39-109-88-109s-88 49-88 109c0 60 39 108 88 108z m0 0m254-317h0c12-4 25-6 37-6 59 0 117 43 139 109 13 38 12 78-2 113-15 37-43 64-78 75-35 12-73 7-106-13-33-20-57-52-70-90-27-80 9-164 80-188z m-24 170c8 25 24 45 44 57 19 12 39 15 58 9 18-7 33-21 41-42 9-22 10-48 1-72-16-50-62-79-102-66-40 13-59 64-42 114z m0 0m333-150l0 0c-56 41-139 23-186-40-47-63-40-149 16-190 20-15 44-22 69-22 43 0 87 22 117 62 47 63 40 148-16 190z m-31-155c-28-37-74-50-104-28-30 22-32 71-4 108 18 25 45 39 70 39 12 0 24-4 34-11 30-22 32-71 4-108z m0 0" horiz-adv-x="1000" />

<glyph glyph-name="dog" unicode="&#xe820;" d="M959 564c-32 54-77 105-107 132-66 58-121 57-148 51-11-3-22-7-31-13-47 35-104 52-173 52s-126-17-173-52c-9 6-20 10-31 13-27 6-82 7-148-51-30-27-75-78-106-132-44-72-53-131-29-174 30-53 74-66 110-70-8-34-14-71-14-117 0-61 14-113 41-156 24-37 59-67 103-89 82-40 180-44 247-44s165 4 247 44c44 22 79 52 103 89 27 43 41 95 41 156 0 46-5 83-14 117 36 4 81 17 110 70 24 43 15 102-28 174z m-817-183c-32 1-58 7-76 39-12 22-2 63 28 113 28 48 69 94 95 117 42 38 74 40 89 38-44-55-72-126-95-194-9-29-18-53-27-77-5-12-9-24-14-36z m318-201c-16 16-24 32-24 41 0 7 1 8 6 10 13 5 39 6 58 6s45-1 58-6c5-2 6-3 6-10 0-9-8-25-24-41-16-16-32-24-40-24s-24 8-40 24z m260-167c-47-23-109-35-189-38v126c24 9 43 27 52 36 13 12 42 46 42 84 0 31-15 54-43 66-19 8-42 11-82 11s-63-3-82-11c-28-12-43-35-43-66 0-38 29-72 42-84 9-9 28-27 52-36v-126c-80 3-142 15-189 38-74 37-110 99-110 190 0 78 18 126 43 193 9 23 19 49 28 78 55 163 112 251 259 251s205-88 259-251c9-29 19-55 28-78 25-67 43-115 43-193 0-91-36-153-110-190z m214 407c-18-32-44-38-76-39-5 12-9 24-14 36-9 24-18 48-27 77-23 68-51 139-95 194 15 2 47 0 89-38 26-23 67-69 95-117 30-50 40-91 28-113z m-536 41c-22 0-40-18-40-41 0-22 18-41 40-41 22 0 40 19 40 41 0 23-18 41-40 41z m204 0c-23 0-41-18-41-41 0-22 18-41 41-41 22 0 40 19 40 41 0 23-18 41-40 41z" horiz-adv-x="1000" />

<glyph glyph-name="lock" unicode="&#xe821;" d="M796 478v104c0 148-133 268-296 268s-296-120-296-268v-104c-63-11-111-66-111-132v-362c0-74 60-134 134-134h547c73 0 133 60 133 134v362c0 66-48 121-111 132z m-555 104c0 127 116 231 259 231s259-104 259-231v-102h-518v102z m629-598c0-54-43-97-96-97h-547c-54 0-97 43-97 97v362c0 53 43 97 97 97h547c53 0 96-44 96-97v-362z m-370 348c-41 0-74-34-74-75v-111c0-41 33-74 74-74s74 33 74 74v111c0 41-33 75-74 75z m37-186c0-20-17-37-37-37s-37 17-37 37v111c0 21 17 37 37 37s37-16 37-37v-111z" horiz-adv-x="1000" />

<glyph glyph-name="adapter" unicode="&#xe822;" d="M17-150l266 0c10 0 17 7 17 17l0 366c0 5-2 9-5 12l-45 45 0 60c0 9-7 17-17 17l-33 0 0 258c0 69 56 125 125 125 69 0 125-56 125-125l0-533c0-134 108-242 242-242 133 0 241 108 241 242l0 408 34 0c9 0 16 8 16 17l0 216c0 10-7 17-16 17l-17 0 0 83c0 10-7 17-17 17l-100 0c-9 0-16-7-16-17l0-83-17 0c-9 0-17-7-17-17l0-216c0-9 8-17 17-17l33 0 0-408c0-79-63-142-141-142-79 0-142 63-142 142l0 533c0 124-101 225-225 225-124 0-225-101-225-225l0-258-33 0c-9 0-17-8-17-17l0-60-45-45c-3-3-5-7-5-12l0-366c0-10 8-17 17-17z m250 33l-234 0 0 67 34 0 0-33 33 0 0 33 33 0 0-33 34 0 0 33 33 0 0-33 33 0 0 33 34 0z m583 934l67 0 0-67-67 0z m-33-100l133 0 0-184-133 0z m50-217l33 0 0-67-33 0z m-734 125c0 106 86 192 192 192 106 0 192-86 192-192l0-533c0-97 78-175 175-175 96 0 175 78 175 175l0 308 33 0 0-308c0-115-93-209-208-209-115 0-209 94-209 209l0 533c0 87-71 158-158 158-87 0-158-71-158-158l0-258-34 0z m-55-353c4 3 5 7 5 11l0 50 134 0 0-50c0-4 1-8 5-11l45-46 0-243-234 0 0 243z m0 0m22-166l33 17 0-73 34 0 0 123 33-17 0-39 33 0 0 50c0 6-3 12-9 15l-57 28 0 40-34 0 0-90-57-28c-6-3-9-9-9-15l0-34 33 0z m0 0" horiz-adv-x="1000" />

<glyph glyph-name="USB" unicode="&#xe823;" d="M194 432v185c0 8-6 14-13 15v49c0 8-7 15-15 15h-138c-9 0-15-7-15-15v-49c-7-1-13-7-13-15v-185c0-53 43-97 97-97 53 0 97 44 97 97z m-152 235h110v-35h-110z m-13-235v170h135v-170c0-37-30-67-67-67s-68 30-68 67z m0 0m612-68v339c0 39-16 76-43 104-28 28-65 43-104 43-81 0-147-66-147-147v-706c0-32-13-61-35-83-22-23-51-35-83-35-65 0-117 53-117 118v293c0 8-7 15-15 15s-15-7-15-15v-293c0-81 66-147 147-147 39 0 76 15 104 43 28 28 43 65 43 104v706c0 65 53 118 118 118 31 0 61-12 83-35 22-22 34-51 34-83v-339c-46-7-82-48-82-96v-185c0-8 6-14 13-15v-49c0-8 6-15 15-15h138c8 0 15 7 15 15v49c7 1 13 7 13 15v185c0 48-36 89-82 96z m-15-29c37 0 67-30 67-67v-170h-135v170c0 37 31 67 68 67z m55-302h-110v35h110z m0 0" horiz-adv-x="1000" />

<glyph glyph-name="refrigerator" unicode="&#xe825;" d="M727 850h-454c-38 0-68-31-68-68v-816c0-37 30-68 68-68h5c0-10 0-19 0-29 0-26 41-26 41 0 0 10 0 19 0 29h365c0-10 0-19 0-29 0-26 40-26 40 0 0 10 0 19 0 29h3c38 0 68 31 68 68v816c0 37-30 68-68 68z m-454-40h454c16 0 28-13 28-28v-284h-510v284c0 15 13 28 28 28z m454-872h-454c-15 0-28 13-28 28v491h510v-491c0-15-12-28-28-28z m-429 445c0-36 0-73 0-109 0-26 40-26 40 0 0 36 0 73 0 109 0 26-40 26-40 0z m40 178c0 37 0 73 0 109 0 26-40 26-40 0 0-36 0-72 0-109 0-26 40-26 40 0z" horiz-adv-x="1000" />
</font>
</defs>
</svg>
